<svg
	xmlns="http://www.w3.org/2000/svg"
	viewBox="0 0 16 16"
	fill="none"

>
	<path
		fill="#000"
		d="M5.6 9H4.37A.38.38 0 0 1 4 8.62V7.38c0-.21.17-.38.37-.38h1.25c.2 0 .37.17.37.38v1.25c0 .2-.17.37-.37.37Zm3.37-.38V7.38A.38.38 0 0 0 8.6 7H7.35c-.2 0-.37.17-.37.38v1.25c0 .2.17.37.37.37H8.6c.2 0 .37-.17.37-.38Zm2.99 0V7.38a.38.38 0 0 0-.37-.38h-1.25c-.2 0-.37.17-.37.38v1.25c0 .2.17.37.37.37h1.25c.2 0 .37-.17.37-.38Zm-2.99 3v-1.24A.38.38 0 0 0 8.6 10H7.35c-.2 0-.37.17-.37.38v1.24c0 .21.17.38.37.38H8.6c.2 0 .37-.17.37-.38Zm-2.99 0v-1.24a.38.38 0 0 0-.37-.38H4.36c-.2 0-.37.17-.37.38v1.24c0 .21.17.38.37.38h1.25c.2 0 .37-.17.37-.38Zm5.98 0v-1.24a.38.38 0 0 0-.37-.38h-1.25c-.2 0-.37.17-.37.38v1.24c0 .21.17.38.37.38h1.25c.2 0 .37-.17.37-.38Zm2.99-8.12v11c0 .83-.67 1.5-1.5 1.5H2.5A1.5 1.5 0 0 1 1 14.5v-11C1 2.67 1.67 2 2.5 2h1.49V.37c0-.2.17-.37.37-.37h1.25c.2 0 .37.17.37.38V2h3.99V.37c0-.2.17-.37.37-.37h1.25c.2 0 .37.17.37.38V2h1.5c.82 0 1.49.67 1.49 1.5Zm-1.5 10.81V5H2.5v9.31c0 .1.09.19.2.19h10.58c.1 0 .18-.08.18-.19Z"
		opacity=".3"
	/>
</svg>
